{
	"asset":{
		"generator":"Khronos glTF Blender I/O v4.0.44",
		"version":"2.0"
	},
	"extensionsUsed":[
		"KHR_materials_specular",
		"KHR_materials_ior"
	],
	"scene":0,
	"scenes":[
		{
			"name":"Scene",
			"nodes":[
				0
			]
		}
	],
	"nodes":[
		{
			"mesh":0,
			"name":"SM_Franko_T1_HI",
			"rotation":[
				0.7071068286895752,
				0,
				0,
				0.7071068286895752
			]
		}
	],
	"materials":[
		{
			"doubleSided":true,
			"extensions":{
				"KHR_materials_specular":{
					"specularFactor":0
				},
				"KHR_materials_ior":{
					"ior":1.4500000476837158
				}
			},
			"name":"Material__25",
			"pbrMetallicRoughness":{
				"baseColorFactor":[
					0.800000011920929,
					0.800000011920929,
					0.800000011920929,
					1
				],
				"metallicFactor":0
			}
		}
	],
	"meshes":[
		{
			"name":"SM_Franko_T1_HI",
			"primitives":[
				{
					"attributes":{
						"POSITION":0,
						"NORMAL":1,
						"TEXCOORD_0":2
					},
					"indices":3,
					"material":0
				}
			]
		}
	],
	"accessors":[
		{
			"bufferView":0,
			"componentType":5126,
			"count":262873,
			"max":[
				1.8323899507522583,
				0.4972580075263977,
				2.2762770652770996
			],
			"min":[
				-1.740831971168518,
				-0.48127299547195435,
				-3.103456974029541
			],
			"type":"VEC3"
		},
		{
			"bufferView":1,
			"componentType":5126,
			"count":262873,
			"type":"VEC3"
		},
		{
			"bufferView":2,
			"componentType":5126,
			"count":262873,
			"type":"VEC2"
		},
		{
			"bufferView":3,
			"componentType":5125,
			"count":1541826,
			"type":"SCALAR"
		}
	],
	"bufferViews":[
		{
			"buffer":0,
			"byteLength":3154476,
			"byteOffset":0,
			"target":34962
		},
		{
			"buffer":0,
			"byteLength":3154476,
			"byteOffset":3154476,
			"target":34962
		},
		{
			"buffer":0,
			"byteLength":2102984,
			"byteOffset":6308952,
			"target":34962
		},
		{
			"buffer":0,
			"byteLength":6167304,
			"byteOffset":8411936,
			"target":34963
		}
	],
	"buffers":[
		{
			"byteLength":14579240,
			"uri":"book.bin"
		}
	]
}
